<svg xmlns="http://www.w3.org/2000/svg" width="300" height="300" viewBox="0 0 300 300">
  <defs>
    <style>
      .cls-1 {
        fill: #00613c;
        fill-rule: evenodd;
      }
    </style>
  </defs>
  <path class="cls-1" d="M151,290C74.356,290,12,227.647,12,151S74.356,12,151,12,290,74.356,290,151,227.647,290,151,290Zm0-268.343A129.344,129.344,0,1,0,280.345,151,129.489,129.489,0,0,0,151,21.658Zm0,9.409A119.934,119.934,0,1,0,270.934,151,119.933,119.933,0,0,0,151,31.067Zm-77.661,42.9C75.93,78.021,86.177,85.556,93.3,89.092L135.547,110.2a35.673,35.673,0,0,0,5.424,16.713L89.5,102.472C80.02,98.013,72.612,87.3,73.339,73.968Zm6.007,26.517,60.411,28.6c0.242,2.1,1.294,8,6.844,14.558L86.4,119.115C76.807,115.168,68.547,106.557,67.98,92.3,73.891,97.586,76.108,98.9,79.346,100.485Zm139.805,74.463,19.717,8.1a14.139,14.139,0,0,1,.123,1.848,13.3,13.3,0,0,1-.49,3.586l-19.8-7.022a7.9,7.9,0,0,1-.815-4.307A3.786,3.786,0,0,1,219.151,174.948Zm-0.183-5.333a5.234,5.234,0,0,1,1.257-2.513l8.095,3.847c3.808,1.895,6.519,3.843,8.138,5.948a11.523,11.523,0,0,1,2.147,4.406l-19.152-7.843A6.6,6.6,0,0,1,218.968,169.615Zm-23.736,54.658-21.868-1.383,0.042-.048c-0.65-.668-2.471-2.926-2.268-4.672a2.933,2.933,0,0,1,1.458-2.049l22.636,2.466a6.9,6.9,0,0,0-.527,2.1A8.356,8.356,0,0,0,195.232,224.273Zm-24.3-1.562-31.663-2.05c0.849-3.385,4.25-7.693,7.936-7.282l22.955,2.515a4.455,4.455,0,0,0-.725,2A7.6,7.6,0,0,0,170.935,222.711Zm-21.743-11.188c0.485-2.664,4.007-7.636,7.613-7.022l19.311,3.229a5.1,5.1,0,0,0-.968,3.18,6.979,6.979,0,0,0,1.294,3.791Zm67.39-30.8-28.1-9.945c-1.05-2.254-1.374-4.15-.927-5.585a3.94,3.94,0,0,1,1.982-2.358l27.737,11.378a5.792,5.792,0,0,0-1.012,2.461A9.437,9.437,0,0,0,216.582,180.724Zm-1.313,8.334-26.642-8.047c-0.894-1.591-1.862-4.052-1.539-5.947a3.817,3.817,0,0,1,1.7-2.512l27.253,9.585a5.848,5.848,0,0,0-1.213,2.717A8.28,8.28,0,0,0,215.269,189.058Zm-1.568,8.131L189,191.141c-0.811-.819-2.551-3.128-2.349-5.279a4.323,4.323,0,0,1,2.108-3.129l25.1,7.538a4.3,4.3,0,0,0-.726,1.74A9.155,9.155,0,0,0,213.7,197.189Zm-2.88,6.847L186.2,199.373l0.08-.155c-0.645-.513-2.264-2.256-2.264-4.1a4.607,4.607,0,0,1,1.737-3.18l25.229,6.1a4.938,4.938,0,0,0-.565,1.386A8.313,8.313,0,0,0,210.821,204.036Zm-29.554-.468a4.309,4.309,0,0,1,1.858-3.229l22.556,4.254a5,5,0,0,0-.608,1.794,8.688,8.688,0,0,0,.65,4.717l-21.986-3.794,0.081-.151C183.125,206.746,181.3,205.261,181.267,203.568Zm4.711-39.188a9.148,9.148,0,0,0,.32,5.637l-33.484-11.84c-5.305-3.693-7.451-10.457-8.221-13.739l42.8,17.532A5.212,5.212,0,0,0,185.978,164.38Zm0.715,7.442a6.089,6.089,0,0,0-1.251,2.819,10.82,10.82,0,0,0,.889,5.69l-29.921-9.022c-6.157-4.921-8.018-10.2-8.586-13.124Zm-0.155,10.246a6.087,6.087,0,0,0-1.577,3.591,8.112,8.112,0,0,0,1.215,4.818l-24.947-6.1a22.637,22.637,0,0,1-8.46-12.458Zm-2.867,9.355a5.767,5.767,0,0,0-1.3,3.693,6.878,6.878,0,0,0,1.134,3.742l-15.227-2.873-1.577-.1c-5.384-3.795-6.681-8.152-7-10.306ZM165.8,197.1l15.062,2.818a5.435,5.435,0,0,0-.16,6.871L159.233,203.1C159.516,200.534,162.674,196.486,165.8,197.1Zm13.2,17.924,0.08-.157c-0.608-.514-2.227-2.256-2.227-4a3.469,3.469,0,0,1,1.375-2.667l-0.075-.1,23.886,4a6.5,6.5,0,0,0-.606,1.794,8.118,8.118,0,0,0,.362,3.743Zm18.252,3.808,13.486,1.431-4.533,4.713-8.99-.561a6.7,6.7,0,0,1-.847-3.54A3.613,3.613,0,0,1,197.245,218.832Zm6.486-.978a6.813,6.813,0,0,1-.649-3.538,3.417,3.417,0,0,1,1.012-1.9l12.148,2.049-4.17,4.363Zm4.1-6.409a8.084,8.084,0,0,1-1.13-4.615,2.616,2.616,0,0,1,1.172-1.794l14.78,2.772-5.145,5.33Zm5.059-7.021c-0.526-1.08-1.214-2.974-.851-4.36a2.409,2.409,0,0,1,1.055-1.487l14.938,3.641-4.085,4.305Zm2.957-6.717c-0.528-1.075-1.5-3.434-1.1-5.126a2.649,2.649,0,0,1,1.139-1.691l17.9,5.382-4.538,4.716Zm1.7-7.946a7.552,7.552,0,0,1-1.092-4.459,3.986,3.986,0,0,1,1.619-2.461l20,7.025a0.629,0.629,0,0,1-.085.256,14.454,14.454,0,0,1-3.036,4.869Zm-0.222-20.727a8.975,8.975,0,0,0,.081,3.59l-28.1-11.483a7.725,7.725,0,0,1-.773-5.228A4.642,4.642,0,0,1,190.8,153.2l27.7,13.124A7.165,7.165,0,0,0,217.32,169.034Zm-30.339-13.878a8.7,8.7,0,0,0,.164,5.075l-36.2-14.812c-6.843-6.358-8.785-12.561-9.312-15.481l47.129,22.3A6.023,6.023,0,0,0,186.981,155.156Zm-104.594-36.2,60.287,24.668c0.4,2.1,1.739,8.2,5.627,12.969L84.655,134.332c-8.5-3.024-15.264-10.663-17.288-22.3C74.128,115.93,77.326,116.9,82.387,118.957ZM70.637,131.093l75.357,26.453a23,23,0,0,0,6.233,12.507L88.7,150.884C80.479,148.423,74,142.525,70.637,131.093Zm12.8,20.01,67.46,20.3a24.512,24.512,0,0,0,6.274,12l-53.933-13.173C94.649,168.121,86.308,162.23,83.433,151.1Zm20.934,20.979,53.57,13.07a16.392,16.392,0,0,0,5.467,10.562h-0.122l-32.393-5.742C117.081,187.562,109.428,184.589,104.367,172.082Zm23.4,58.382c-0.405-3.893,5.872-8.355,10.287-8.1l25.751,1.539a5.612,5.612,0,0,0-.607,2.562,7.249,7.249,0,0,0,1.373,4h-36.8Zm39.154,0c-0.811-.87-2.025-2.51-2.025-4.046a3.524,3.524,0,0,1,1.055-2.362l22.475,1.383a6.573,6.573,0,0,0-.49,2.205,7.3,7.3,0,0,0,.57,2.82H166.925Zm23.618,0a5,5,0,0,1-.889-2.772,3.6,3.6,0,0,1,.767-2.151l14.417,0.877-3.888,4.046H190.543Zm26.89,0H204.109l32.152-33.475a17.924,17.924,0,0,0,4.782-12.1,15.4,15.4,0,0,0-3.163-9.841,24.886,24.886,0,0,0-8.826-6.46l-83.007-39.264a28.941,28.941,0,0,1-8.011-21.78c7.1,5.8,10.791,9.191,16.853,12.174l77.649,38.207c17.65,8.665,22.795,31.835,9.432,46.19Z"/>
</svg>
